<?xml version="1.0" encoding="iso-8859-1"?>
<!-- Generator: Adobe Illustrator 19.0.1, SVG Export Plug-In . SVG Version: 6.00 Build 0)  -->
<svg version="1.1" xmlns="http://www.w3.org/2000/svg" xmlns:xlink="http://www.w3.org/1999/xlink" x="0px" y="0px"
	 viewBox="0 0 128 128" style="enable-background:new 0 0 128 128;" xml:space="preserve">
<g id="_x31_1">
	<g>
		<path style="fill:#303030;" d="M41.131,84.034c0,1.108-0.618,2.146-1.629,2.707c-0.492,0.28-1.039,0.421-1.573,0.421
			c-0.562,0-1.124-0.154-1.644-0.463L1.573,66.669C0.604,66.122,0,65.069,0,63.961c0-1.136,0.59-2.16,1.573-2.735l34.767-20.031
			c0.506-0.309,1.054-0.463,1.644-0.463c1.728,0,3.147,1.403,3.147,3.142c0,1.038-0.506,1.992-1.348,2.581L9.468,63.961
			l29.219,16.847l0.028-0.07l1.068,0.715C40.639,82.057,41.131,82.996,41.131,84.034z"/>
		<path style="fill:#303030;" d="M75.378,33.971L59.126,94.597h0.084l-0.421,1.22c-0.45,1.248-1.644,2.09-2.964,2.09
			c-1.742,0-3.161-1.417-3.161-3.156c0-0.224,0.028-0.449,0.084-0.687l0.028-0.14L69.24,32.54c0.267-1.445,1.573-2.539,3.09-2.539
			c1.742,0,3.161,1.417,3.161,3.156C75.491,33.438,75.449,33.718,75.378,33.971z"/>
		<path style="fill:#303030;" d="M128,63.961c0,1.108-0.604,2.16-1.573,2.721L91.659,86.728c-0.45,0.281-0.983,0.421-1.531,0.421
			c-0.548,0-1.096-0.14-1.615-0.435c-1.011-0.561-1.644-1.599-1.644-2.679c0-1.038,0.492-1.978,1.348-2.581l0.871-0.617l0.056,0.07
			l29.387-16.945L88.246,46.483c-0.871-0.617-1.377-1.571-1.377-2.609c0-1.108,0.618-2.16,1.629-2.721
			c1.011-0.575,2.22-0.547,3.217,0.056l34.697,20.017C127.396,61.787,128,62.839,128,63.961z"/>
	</g>
</g>
<g id="Layer_1">
</g>
</svg>
